<svg xmlns="http://www.w3.org/2000/svg" xmlns:xlink="http://www.w3.org/1999/xlink" viewBox="0 0 540 486"><defs><style>.a,.b,.f,.h,.i,.j,.o,.v,.x,.z{fill:none;}.a,.f,.g,.h,.i,.j{stroke:#004449;}.a,.b,.g,.p{stroke-miterlimit:10;}.a,.b,.f,.g,.o,.p{stroke-width:2px;}.b,.o,.p,.v,.x,.z{stroke:#4e3e68;}.c{opacity:0.2;}.d{clip-path:url(#a);}.e,.g{fill:#004449;}.f,.j,.o,.z{stroke-linecap:round;}.f,.h,.i,.j,.o,.v,.x,.z{stroke-linejoin:round;}.h,.v{stroke-width:12px;}.i,.x{stroke-width:4px;}.k{clip-path:url(#b);}.l{fill:#fceee6;}.m,.p{fill:#fff;}.n{fill:#4e3e68;}.q{fill:#c3f2f5;}.r{fill:#ea6c7f;}.s{fill:#f2df83;}.t{fill:#6ee58d;}.u{fill:#b7cf8d;}.w{opacity:0.6;}.y{fill:#f69f52;}</style><clipPath id="a"><rect class="a" x="1" y="5" width="538" height="480" rx="8" ry="8"/></clipPath><clipPath id="b"><rect class="b" x="1" y="1" width="538" height="480" rx="8" ry="8"/></clipPath><symbol id="c" viewBox="0 0 540 486"><g class="c"><g class="d"><rect class="e" x="1" y="5" width="538" height="480" rx="8" ry="8"/><rect class="a" x="1" y="5" width="538" height="480" rx="8" ry="8"/><path class="e" d="M8,485a7,7,0,0,1-7-7V45H159V485H8Z"/><path class="e" d="M158,46V484H8a6,6,0,0,1-6-6V46H158m2-2H0V478a8,8,0,0,0,8,8H160V44h0Z"/><rect class="e" x="1" y="45" width="158" height="26"/><rect class="a" x="1" y="45" width="158" height="26"/><rect class="e" x="1" y="71" width="32" height="42"/><line class="f" x1="13.92" y1="55" x2="19.92" y2="61"/><line class="f" x1="19.92" y1="55" x2="13.92" y2="61"/><rect class="a" x="1" y="71" width="158" height="42"/><path class="g" d="M9,5H531a8,8,0,0,1,8,8V45a0,0,0,0,1,0,0H1a0,0,0,0,1,0,0V13A8,8,0,0,1,9,5Z"/><rect class="e" x="110" y="51" width="38" height="14" rx="2" ry="2"/><rect class="a" x="110" y="51" width="38" height="14" rx="2" ry="2"/><circle class="e" cx="18.5" cy="25" r="4.5"/><circle class="a" cx="18.5" cy="25" r="4.5"/><circle class="e" cx="31.5" cy="25" r="4.5"/><circle class="a" cx="31.5" cy="25" r="4.5"/><circle class="e" cx="44.5" cy="25" r="4.5"/><circle class="a" cx="44.5" cy="25" r="4.5"/><rect class="e" x="161" y="15" width="368" height="20" rx="3" ry="3"/><rect class="a" x="161" y="15" width="368" height="20" rx="3" ry="3"/><path class="e" d="M101.08,35h-16a1,1,0,0,1-1-1V16a1,1,0,0,1,1-1h16a3,3,0,0,1,3,3V32A3,3,0,0,1,101.08,35Z"/><path class="a" d="M101.08,35h-16a1,1,0,0,1-1-1V16a1,1,0,0,1,1-1h16a3,3,0,0,1,3,3V32A3,3,0,0,1,101.08,35Z"/><path class="e" d="M83.08,35h-16a3,3,0,0,1-3-3V18a3,3,0,0,1,3-3h16a1,1,0,0,1,1,1V34A1,1,0,0,1,83.08,35Z"/><path class="a" d="M83.08,35h-16a3,3,0,0,1-3-3V18a3,3,0,0,1,3-3h16a1,1,0,0,1,1,1V34A1,1,0,0,1,83.08,35Z"/><polyline class="f" points="75.77 29 71.77 25 75.77 21"/><polyline class="f" points="92.77 29 96.77 25 92.77 21"/><polyline class="f" points="18.69 96 14.69 92 18.69 88"/><line class="f" x1="32" y1="45" x2="32" y2="113"/><line class="f" x1="47.16" y1="87.68" x2="71.16" y2="87.68"/><line class="f" x1="47.16" y1="96.2" x2="95.16" y2="96.2"/><rect class="e" x="13" y="137.01" width="134" height="14" rx="2" ry="2"/><rect class="a" x="13" y="137.01" width="134" height="14" rx="2" ry="2"/><line class="f" x1="13" y1="129" x2="37" y2="129"/><path class="e" d="M49.05,353H15a2,2,0,0,1-2-2V341a2,2,0,0,1,2-2H49.05v14Z"/><path class="a" d="M49.05,353H15a2,2,0,0,1-2-2V341a2,2,0,0,1,2-2H49.05v14Z"/><path class="e" d="M95,353H48.93V339H95a2,2,0,0,1,2,2v10A2,2,0,0,1,95,353Z"/><path class="a" d="M95,353H48.93V339H95a2,2,0,0,1,2,2v10A2,2,0,0,1,95,353Z"/><line class="f" x1="13" y1="330" x2="37" y2="330"/><rect class="e" x="13" y="167.36" width="134" height="54" rx="2" ry="2"/><rect class="a" x="13" y="167.36" width="134" height="54" rx="2" ry="2"/><line class="f" x1="13" y1="159.35" x2="37" y2="159.35"/><rect class="e" x="13" y="237" width="134" height="54" rx="2" ry="2"/><rect class="a" x="13" y="237" width="134" height="54" rx="2" ry="2"/><line class="f" x1="13" y1="229" x2="37" y2="229"/><rect class="e" x="13" y="297" width="64" height="14" rx="2" ry="2"/><rect class="a" x="13" y="297" width="64" height="14" rx="2" ry="2"/><rect class="e" x="83" y="297" width="64" height="14" rx="2" ry="2"/><rect class="a" x="83" y="297" width="64" height="14" rx="2" ry="2"/><line class="a" x1="159" y1="459" x2="1" y2="459"/></g><rect class="a" x="1" y="5" width="538" height="480" rx="8" ry="8"/><rect class="e" x="336" y="178" width="173" height="148" rx="4" ry="4"/><path class="e" d="M449.09,267.59L438.5,257h5.17a2,2,0,0,0,1.41-3.41L433.5,242h4.17a2.16,2.16,0,0,0,1.41-3.64l-15.17-15.29a2,2,0,0,0-2.83-.06l-15.17,15.37a2.14,2.14,0,0,0,1.41,3.61h4.17l-11.59,11.59a2,2,0,0,0,1.41,3.41h5.17l-10.59,10.59a2,2,0,0,0,1.41,3.41h19.42v5.54a6,6,0,0,0,12,0V271h18.92A2,2,0,0,0,449.09,267.59Z"/><line class="h" x1="192" y1="210" x2="307" y2="210"/><line class="i" x1="192" y1="225" x2="307" y2="225"/><line class="i" x1="192" y1="236" x2="307" y2="236"/><line class="i" x1="192" y1="248" x2="307" y2="248"/><line class="i" x1="192" y1="260" x2="307" y2="260"/><line class="i" x1="192" y1="272" x2="307" y2="272"/><rect class="e" x="192" y="284" width="54" height="18" rx="2" ry="2"/><path class="e" d="M92.21,272.41L86.57,267h2.75a1.07,1.07,0,0,0,.75-1.82L83.91,259h2.22a1.19,1.19,0,0,0,.75-2l-8.08-8.16a1.07,1.07,0,0,0-1.51,0L69.21,257a1.17,1.17,0,0,0,.75,2h2.22L66,265.18a1.07,1.07,0,0,0,.75,1.82h2.75l-5.64,5.41a0.92,0.92,0,0,0,.75,1.59H75v3.3a3,3,0,1,0,6,0V274H91.45A0.92,0.92,0,0,0,92.21,272.41Z"/><path class="j" d="M92.21,272.41L86.57,267h2.75a1.07,1.07,0,0,0,.75-1.82L83.91,259h2.22a1.19,1.19,0,0,0,.75-2l-8.08-8.16a1.07,1.07,0,0,0-1.51,0L69.21,257a1.17,1.17,0,0,0,.75,2h2.22L66,265.18a1.07,1.07,0,0,0,.75,1.82h2.75l-5.64,5.41a0.92,0.92,0,0,0,.75,1.59H75v3.3a3,3,0,1,0,6,0V274H91.45A0.92,0.92,0,0,0,92.21,272.41Z"/><polyline class="f" points="16 476 12 472 16 468"/><line class="f" x1="23" y1="472" x2="47" y2="472"/><line class="a" x1="85" y1="459" x2="85" y2="485"/><path class="a" d="M109,474H93v-7a1,1,0,0,1,1-1h14a1,1,0,0,1,1,1v7Z"/><path class="a" d="M108,478H94a1,1,0,0,1-1-1v-3h16v3A1,1,0,0,1,108,478Z"/><rect class="a" x="120" y="466" width="12" height="12" rx="1" ry="1"/><rect class="a" x="142" y="466" width="9" height="12" rx="1" ry="1"/></g><g class="k"><rect class="l" x="1" y="1" width="538" height="480" rx="8" ry="8"/><rect class="b" x="1" y="1" width="538" height="480" rx="8" ry="8"/><path class="m" d="M8,481a7,7,0,0,1-7-7V41H159V481H8Z"/><path class="n" d="M158,42V480H8a6,6,0,0,1-6-6V42H158m2-2H0V474a8,8,0,0,0,8,8H160V40h0Z"/><rect class="l" x="1" y="41" width="158" height="26"/><rect class="b" x="1" y="41" width="158" height="26"/><rect class="l" x="1" y="67" width="32" height="42"/><line class="o" x1="13.92" y1="51" x2="19.92" y2="57"/><line class="o" x1="19.92" y1="51" x2="13.92" y2="57"/><rect class="b" x="1" y="67" width="158" height="42"/><path class="p" d="M9,1H531a8,8,0,0,1,8,8V41a0,0,0,0,1,0,0H1a0,0,0,0,1,0,0V9A8,8,0,0,1,9,1Z"/><rect class="q" x="110" y="47" width="38" height="14" rx="2" ry="2"/><rect class="b" x="110" y="47" width="38" height="14" rx="2" ry="2"/><circle class="r" cx="18.5" cy="21" r="4.5"/><circle class="b" cx="18.5" cy="21" r="4.5"/><circle class="s" cx="31.5" cy="21" r="4.5"/><circle class="b" cx="31.5" cy="21" r="4.5"/><circle class="t" cx="44.5" cy="21" r="4.5"/><circle class="b" cx="44.5" cy="21" r="4.5"/><rect class="l" x="161" y="11" width="368" height="20" rx="3" ry="3"/><rect class="b" x="161" y="11" width="368" height="20" rx="3" ry="3"/><path class="l" d="M101.08,31h-16a1,1,0,0,1-1-1V12a1,1,0,0,1,1-1h16a3,3,0,0,1,3,3V28A3,3,0,0,1,101.08,31Z"/><path class="b" d="M101.08,31h-16a1,1,0,0,1-1-1V12a1,1,0,0,1,1-1h16a3,3,0,0,1,3,3V28A3,3,0,0,1,101.08,31Z"/><path class="l" d="M83.08,31h-16a3,3,0,0,1-3-3V14a3,3,0,0,1,3-3h16a1,1,0,0,1,1,1V30A1,1,0,0,1,83.08,31Z"/><path class="b" d="M83.08,31h-16a3,3,0,0,1-3-3V14a3,3,0,0,1,3-3h16a1,1,0,0,1,1,1V30A1,1,0,0,1,83.08,31Z"/><polyline class="o" points="75.77 25 71.77 21 75.77 17"/><polyline class="o" points="92.77 25 96.77 21 92.77 17"/><polyline class="o" points="18.69 92 14.69 88 18.69 84"/><line class="o" x1="32" y1="41" x2="32" y2="109"/><line class="o" x1="47.16" y1="83.68" x2="71.16" y2="83.68"/><line class="o" x1="47.16" y1="92.2" x2="95.16" y2="92.2"/><rect class="m" x="13" y="133.01" width="134" height="14" rx="2" ry="2"/><rect class="b" x="13" y="133.01" width="134" height="14" rx="2" ry="2"/><line class="o" x1="13" y1="125" x2="37" y2="125"/><path class="l" d="M49.05,349H15a2,2,0,0,1-2-2V337a2,2,0,0,1,2-2H49.05v14Z"/><path class="b" d="M49.05,349H15a2,2,0,0,1-2-2V337a2,2,0,0,1,2-2H49.05v14Z"/><path class="m" d="M95,349H48.93V335H95a2,2,0,0,1,2,2v10A2,2,0,0,1,95,349Z"/><path class="b" d="M95,349H48.93V335H95a2,2,0,0,1,2,2v10A2,2,0,0,1,95,349Z"/><line class="o" x1="13" y1="326" x2="37" y2="326"/><rect class="m" x="13" y="163.36" width="134" height="54" rx="2" ry="2"/><rect class="b" x="13" y="163.36" width="134" height="54" rx="2" ry="2"/><line class="o" x1="13" y1="155.35" x2="37" y2="155.35"/><rect class="n" x="13" y="233" width="134" height="54" rx="2" ry="2"/><rect class="b" x="13" y="233" width="134" height="54" rx="2" ry="2"/><line class="o" x1="13" y1="225" x2="37" y2="225"/><rect class="q" x="13" y="293" width="64" height="14" rx="2" ry="2"/><rect class="b" x="13" y="293" width="64" height="14" rx="2" ry="2"/><rect class="q" x="83" y="293" width="64" height="14" rx="2" ry="2"/><rect class="b" x="83" y="293" width="64" height="14" rx="2" ry="2"/><line class="b" x1="159" y1="455" x2="1" y2="455"/></g><rect class="b" x="1" y="1" width="538" height="480" rx="8" ry="8"/><rect class="n" x="336" y="174" width="173" height="148" rx="4" ry="4"/><path class="u" d="M449.09,263.59L438.5,253h5.17a2,2,0,0,0,1.41-3.41L433.5,238h4.17a2.16,2.16,0,0,0,1.41-3.64l-15.17-15.29a2,2,0,0,0-2.83-.06l-15.17,15.37a2.14,2.14,0,0,0,1.41,3.61h4.17l-11.59,11.59a2,2,0,0,0,1.41,3.41h5.17l-10.59,10.59a2,2,0,0,0,1.41,3.41h19.42v5.54a6,6,0,0,0,12,0V267h18.92A2,2,0,0,0,449.09,263.59Z"/><line class="v" x1="192" y1="206" x2="307" y2="206"/><g class="w"><line class="x" x1="192" y1="221" x2="307" y2="221"/></g><g class="w"><line class="x" x1="192" y1="232" x2="307" y2="232"/></g><g class="w"><line class="x" x1="192" y1="244" x2="307" y2="244"/></g><g class="w"><line class="x" x1="192" y1="256" x2="307" y2="256"/></g><g class="w"><line class="x" x1="192" y1="268" x2="307" y2="268"/></g><rect class="y" x="192" y="280" width="54" height="18" rx="2" ry="2"/><path class="u" d="M92.21,268.41L86.57,263h2.75a1.07,1.07,0,0,0,.75-1.82L83.91,255h2.22a1.19,1.19,0,0,0,.75-2l-8.08-8.16a1.07,1.07,0,0,0-1.51,0L69.21,253a1.17,1.17,0,0,0,.75,2h2.22L66,261.18a1.07,1.07,0,0,0,.75,1.82h2.75l-5.64,5.41a0.92,0.92,0,0,0,.75,1.59H75v3.3a3,3,0,1,0,6,0V270H91.45A0.92,0.92,0,0,0,92.21,268.41Z"/><path class="z" d="M92.21,268.41L86.57,263h2.75a1.07,1.07,0,0,0,.75-1.82L83.91,255h2.22a1.19,1.19,0,0,0,.75-2l-8.08-8.16a1.07,1.07,0,0,0-1.51,0L69.21,253a1.17,1.17,0,0,0,.75,2h2.22L66,261.18a1.07,1.07,0,0,0,.75,1.82h2.75l-5.64,5.41a0.92,0.92,0,0,0,.75,1.59H75v3.3a3,3,0,1,0,6,0V270H91.45A0.92,0.92,0,0,0,92.21,268.41Z"/><polyline class="o" points="16 472 12 468 16 464"/><line class="o" x1="23" y1="468" x2="47" y2="468"/><line class="b" x1="85" y1="455" x2="85" y2="481"/><path class="b" d="M109,470H93v-7a1,1,0,0,1,1-1h14a1,1,0,0,1,1,1v7Z"/><path class="b" d="M108,474H94a1,1,0,0,1-1-1v-3h16v3A1,1,0,0,1,108,474Z"/><rect class="b" x="120" y="462" width="12" height="12" rx="1" ry="1"/><rect class="b" x="142" y="462" width="9" height="12" rx="1" ry="1"/></symbol></defs><title>customizer-hero</title><use width="540" height="486" xlink:href="#c"/></svg>